<mxfile host="Electron" agent="Mozilla/5.0 (Macintosh; Intel Mac OS X 10_15_7) AppleWebKit/537.36 (KHTML, like Gecko) draw.io/27.0.9 Chrome/134.0.6998.205 Electron/35.4.0 Safari/537.36" version="27.0.9">
  <diagram name="Page-1" id="ITFYHicdbRpaUVDZASu8">
    <mxGraphModel dx="1310" dy="1002" grid="1" gridSize="10" guides="1" tooltips="1" connect="1" arrows="1" fold="1" page="1" pageScale="1" pageWidth="827" pageHeight="1169" math="0" shadow="0">
      <root>
        <mxCell id="0" />
        <mxCell id="1" parent="0" />
        <mxCell id="_G3g5uM6ULP5Mstr5q0o-2" value="" style="rounded=0;whiteSpace=wrap;html=1;fillColor=#d5e8d4;strokeColor=#82b366;" vertex="1" parent="1">
          <mxGeometry x="260" y="50" width="550" height="900" as="geometry" />
        </mxCell>
        <mxCell id="_G3g5uM6ULP5Mstr5q0o-3" value="&lt;font style=&quot;font-size: 20px;&quot;&gt;Quai Antique&lt;/font&gt;" style="text;html=1;align=center;verticalAlign=middle;whiteSpace=wrap;rounded=0;fontStyle=1;fontSize=15;" vertex="1" parent="1">
          <mxGeometry x="620" y="60" width="160" height="30" as="geometry" />
        </mxCell>
        <mxCell id="_G3g5uM6ULP5Mstr5q0o-23" style="rounded=0;orthogonalLoop=1;jettySize=auto;html=1;entryX=0;entryY=0.5;entryDx=0;entryDy=0;endArrow=none;startFill=0;" edge="1" parent="1" source="_G3g5uM6ULP5Mstr5q0o-4" target="_G3g5uM6ULP5Mstr5q0o-8">
          <mxGeometry relative="1" as="geometry" />
        </mxCell>
        <mxCell id="_G3g5uM6ULP5Mstr5q0o-24" style="rounded=0;orthogonalLoop=1;jettySize=auto;html=1;entryX=0;entryY=0.5;entryDx=0;entryDy=0;endArrow=none;startFill=0;" edge="1" parent="1" source="_G3g5uM6ULP5Mstr5q0o-4" target="_G3g5uM6ULP5Mstr5q0o-9">
          <mxGeometry relative="1" as="geometry" />
        </mxCell>
        <mxCell id="_G3g5uM6ULP5Mstr5q0o-25" style="rounded=0;orthogonalLoop=1;jettySize=auto;html=1;endArrow=none;startFill=0;" edge="1" parent="1" source="_G3g5uM6ULP5Mstr5q0o-4" target="_G3g5uM6ULP5Mstr5q0o-10">
          <mxGeometry relative="1" as="geometry" />
        </mxCell>
        <mxCell id="_G3g5uM6ULP5Mstr5q0o-26" style="rounded=0;orthogonalLoop=1;jettySize=auto;html=1;endArrow=none;startFill=0;" edge="1" parent="1" source="_G3g5uM6ULP5Mstr5q0o-4" target="_G3g5uM6ULP5Mstr5q0o-11">
          <mxGeometry relative="1" as="geometry" />
        </mxCell>
        <mxCell id="_G3g5uM6ULP5Mstr5q0o-28" style="rounded=0;orthogonalLoop=1;jettySize=auto;html=1;endArrow=none;startFill=0;" edge="1" parent="1" source="_G3g5uM6ULP5Mstr5q0o-4" target="_G3g5uM6ULP5Mstr5q0o-13">
          <mxGeometry relative="1" as="geometry" />
        </mxCell>
        <mxCell id="_G3g5uM6ULP5Mstr5q0o-4" value="Administrateur" style="shape=umlActor;verticalLabelPosition=bottom;verticalAlign=top;html=1;outlineConnect=0;fontSize=13;" vertex="1" parent="1">
          <mxGeometry x="100" y="290" width="60" height="90" as="geometry" />
        </mxCell>
        <mxCell id="_G3g5uM6ULP5Mstr5q0o-31" style="rounded=0;orthogonalLoop=1;jettySize=auto;html=1;endArrow=none;startFill=0;" edge="1" parent="1" source="_G3g5uM6ULP5Mstr5q0o-5" target="_G3g5uM6ULP5Mstr5q0o-13">
          <mxGeometry relative="1" as="geometry" />
        </mxCell>
        <mxCell id="_G3g5uM6ULP5Mstr5q0o-32" style="rounded=0;orthogonalLoop=1;jettySize=auto;html=1;endArrow=none;startFill=0;" edge="1" parent="1" source="_G3g5uM6ULP5Mstr5q0o-5" target="_G3g5uM6ULP5Mstr5q0o-17">
          <mxGeometry relative="1" as="geometry" />
        </mxCell>
        <mxCell id="_G3g5uM6ULP5Mstr5q0o-33" style="rounded=0;orthogonalLoop=1;jettySize=auto;html=1;endArrow=none;startFill=0;" edge="1" parent="1" source="_G3g5uM6ULP5Mstr5q0o-5" target="_G3g5uM6ULP5Mstr5q0o-18">
          <mxGeometry relative="1" as="geometry" />
        </mxCell>
        <mxCell id="_G3g5uM6ULP5Mstr5q0o-34" style="rounded=0;orthogonalLoop=1;jettySize=auto;html=1;endArrow=none;startFill=0;" edge="1" parent="1" source="_G3g5uM6ULP5Mstr5q0o-5" target="_G3g5uM6ULP5Mstr5q0o-19">
          <mxGeometry relative="1" as="geometry" />
        </mxCell>
        <mxCell id="_G3g5uM6ULP5Mstr5q0o-5" value="&lt;font style=&quot;font-size: 15px;&quot;&gt;Client&lt;/font&gt;" style="shape=umlActor;verticalLabelPosition=bottom;verticalAlign=top;html=1;outlineConnect=0;fontSize=13;" vertex="1" parent="1">
          <mxGeometry x="100" y="660" width="60" height="90" as="geometry" />
        </mxCell>
        <mxCell id="_G3g5uM6ULP5Mstr5q0o-37" style="rounded=0;orthogonalLoop=1;jettySize=auto;html=1;endArrow=none;startFill=0;" edge="1" parent="1" source="_G3g5uM6ULP5Mstr5q0o-6" target="_G3g5uM6ULP5Mstr5q0o-21">
          <mxGeometry relative="1" as="geometry" />
        </mxCell>
        <mxCell id="_G3g5uM6ULP5Mstr5q0o-38" style="rounded=0;orthogonalLoop=1;jettySize=auto;html=1;endArrow=none;startFill=0;" edge="1" parent="1" source="_G3g5uM6ULP5Mstr5q0o-6" target="_G3g5uM6ULP5Mstr5q0o-13">
          <mxGeometry relative="1" as="geometry" />
        </mxCell>
        <mxCell id="_G3g5uM6ULP5Mstr5q0o-39" style="rounded=0;orthogonalLoop=1;jettySize=auto;html=1;endArrow=none;startFill=0;" edge="1" parent="1" source="_G3g5uM6ULP5Mstr5q0o-6" target="_G3g5uM6ULP5Mstr5q0o-19">
          <mxGeometry relative="1" as="geometry" />
        </mxCell>
        <mxCell id="_G3g5uM6ULP5Mstr5q0o-6" value="Visiteur" style="shape=umlActor;verticalLabelPosition=bottom;verticalAlign=top;html=1;outlineConnect=0;fontSize=13;" vertex="1" parent="1">
          <mxGeometry x="880" y="450" width="60" height="90" as="geometry" />
        </mxCell>
        <mxCell id="_G3g5uM6ULP5Mstr5q0o-8" value="Gérer les informations du restaurant" style="ellipse;whiteSpace=wrap;html=1;" vertex="1" parent="1">
          <mxGeometry x="330" y="110" width="110" height="60" as="geometry" />
        </mxCell>
        <mxCell id="_G3g5uM6ULP5Mstr5q0o-9" value="Gérer les menus" style="ellipse;whiteSpace=wrap;html=1;" vertex="1" parent="1">
          <mxGeometry x="330" y="200" width="110" height="60" as="geometry" />
        </mxCell>
        <mxCell id="_G3g5uM6ULP5Mstr5q0o-29" style="edgeStyle=orthogonalEdgeStyle;rounded=0;orthogonalLoop=1;jettySize=auto;html=1;dashed=1;" edge="1" parent="1" source="_G3g5uM6ULP5Mstr5q0o-10" target="_G3g5uM6ULP5Mstr5q0o-22">
          <mxGeometry relative="1" as="geometry" />
        </mxCell>
        <mxCell id="_G3g5uM6ULP5Mstr5q0o-30" value="&amp;lt;&amp;lt;extend&amp;gt;&amp;gt;" style="edgeLabel;html=1;align=center;verticalAlign=middle;resizable=0;points=[];" vertex="1" connectable="0" parent="_G3g5uM6ULP5Mstr5q0o-29">
          <mxGeometry x="-0.1417" y="1" relative="1" as="geometry">
            <mxPoint as="offset" />
          </mxGeometry>
        </mxCell>
        <mxCell id="_G3g5uM6ULP5Mstr5q0o-10" value="Gérer les plats" style="ellipse;whiteSpace=wrap;html=1;" vertex="1" parent="1">
          <mxGeometry x="330" y="280" width="110" height="60" as="geometry" />
        </mxCell>
        <mxCell id="_G3g5uM6ULP5Mstr5q0o-11" value="Gérer les ré&lt;span style=&quot;color: rgba(0, 0, 0, 0); font-family: monospace; font-size: 0px; text-align: start; text-wrap-mode: nowrap;&quot;&gt;%3CmxGraphModel%3E%3Croot%3E%3CmxCell%20id%3D%220%22%2F%3E%3CmxCell%20id%3D%221%22%20parent%3D%220%22%2F%3E%3CmxCell%20id%3D%222%22%20value%3D%22G%C3%A9rer%20les%20plats%22%20style%3D%22ellipse%3BwhiteSpace%3Dwrap%3Bhtml%3D1%3B%22%20vertex%3D%221%22%20parent%3D%221%22%3E%3CmxGeometry%20x%3D%22330%22%20y%3D%22270%22%20width%3D%22110%22%20height%3D%2260%22%20as%3D%22geometry%22%2F%3E%3C%2FmxCell%3E%3C%2Froot%3E%3C%2FmxGraphModel%3E&lt;/span&gt;servations" style="ellipse;whiteSpace=wrap;html=1;" vertex="1" parent="1">
          <mxGeometry x="330" y="370" width="110" height="60" as="geometry" />
        </mxCell>
        <mxCell id="_G3g5uM6ULP5Mstr5q0o-12" value="Gérer les images" style="ellipse;whiteSpace=wrap;html=1;" vertex="1" parent="1">
          <mxGeometry x="330" y="450" width="110" height="60" as="geometry" />
        </mxCell>
        <mxCell id="_G3g5uM6ULP5Mstr5q0o-13" value="Afficher la carte" style="ellipse;whiteSpace=wrap;html=1;" vertex="1" parent="1">
          <mxGeometry x="330" y="545" width="110" height="60" as="geometry" />
        </mxCell>
        <mxCell id="_G3g5uM6ULP5Mstr5q0o-17" value="Modifier s&lt;span style=&quot;background-color: transparent; color: light-dark(rgb(0, 0, 0), rgb(255, 255, 255));&quot;&gt;es données personnelles&amp;nbsp;&lt;/span&gt;" style="ellipse;whiteSpace=wrap;html=1;" vertex="1" parent="1">
          <mxGeometry x="330" y="720" width="110" height="60" as="geometry" />
        </mxCell>
        <mxCell id="_G3g5uM6ULP5Mstr5q0o-18" value="Gestion de ses réservations&amp;nbsp;" style="ellipse;whiteSpace=wrap;html=1;" vertex="1" parent="1">
          <mxGeometry x="330" y="820" width="110" height="60" as="geometry" />
        </mxCell>
        <mxCell id="_G3g5uM6ULP5Mstr5q0o-19" value="Réserver une table&amp;nbsp;" style="ellipse;whiteSpace=wrap;html=1;" vertex="1" parent="1">
          <mxGeometry x="440" y="630" width="110" height="60" as="geometry" />
        </mxCell>
        <mxCell id="_G3g5uM6ULP5Mstr5q0o-35" style="edgeStyle=orthogonalEdgeStyle;rounded=0;orthogonalLoop=1;jettySize=auto;html=1;dashed=1;" edge="1" parent="1" source="_G3g5uM6ULP5Mstr5q0o-20" target="_G3g5uM6ULP5Mstr5q0o-19">
          <mxGeometry relative="1" as="geometry" />
        </mxCell>
        <mxCell id="_G3g5uM6ULP5Mstr5q0o-36" value="&amp;lt;&amp;lt;include&amp;gt;&amp;gt;" style="edgeLabel;html=1;align=center;verticalAlign=middle;resizable=0;points=[];" vertex="1" connectable="0" parent="_G3g5uM6ULP5Mstr5q0o-35">
          <mxGeometry x="0.0465" relative="1" as="geometry">
            <mxPoint as="offset" />
          </mxGeometry>
        </mxCell>
        <mxCell id="_G3g5uM6ULP5Mstr5q0o-20" value="Connexion" style="ellipse;whiteSpace=wrap;html=1;" vertex="1" parent="1">
          <mxGeometry x="560" y="720" width="110" height="60" as="geometry" />
        </mxCell>
        <mxCell id="_G3g5uM6ULP5Mstr5q0o-21" value="Inscription" style="ellipse;whiteSpace=wrap;html=1;" vertex="1" parent="1">
          <mxGeometry x="680" y="640" width="110" height="60" as="geometry" />
        </mxCell>
        <mxCell id="_G3g5uM6ULP5Mstr5q0o-22" value="Gérer les catégories" style="ellipse;whiteSpace=wrap;html=1;" vertex="1" parent="1">
          <mxGeometry x="560" y="280" width="110" height="60" as="geometry" />
        </mxCell>
        <mxCell id="_G3g5uM6ULP5Mstr5q0o-27" style="rounded=0;orthogonalLoop=1;jettySize=auto;html=1;endArrow=none;startFill=0;" edge="1" parent="1" source="_G3g5uM6ULP5Mstr5q0o-4" target="_G3g5uM6ULP5Mstr5q0o-12">
          <mxGeometry relative="1" as="geometry">
            <mxPoint x="220" y="350" as="sourcePoint" />
            <mxPoint x="395" y="394" as="targetPoint" />
          </mxGeometry>
        </mxCell>
      </root>
    </mxGraphModel>
  </diagram>
</mxfile>
